Coordinates
version=1
nRows=38
nColumns=12
inDegrees=yes

Units are S.I. units (second, meters, Newtons, ...)
Angles are in degrees

endheader
time	SC_y	SC_z	SC_x	AC_y	AC_z	AC_x	GH_y	GH_z	GH_yy	EL_x	PS_y
       0.0              -52.24          15.23          64.26          59.04          3.802         -15.57          116.8          76.43           56.1          27.81          19.77
   0.02091              -52.24          15.23          64.26          59.04          3.799         -15.56          116.7          76.42          56.08          27.82          19.78
   0.04183              -52.24          15.23          64.25          59.04          3.795         -15.56          116.7          76.41          56.06          27.84           19.8
   0.06274              -52.24          15.23          64.24          59.04          3.792         -15.55          116.7           76.4          56.03          27.85          19.81
   0.08366              -52.24          15.22          64.23          59.04          3.789         -15.55          116.7          76.38          56.01          27.87          19.82
    0.1046              -52.24          15.22          64.23          59.04          3.785         -15.54          116.6          76.37          55.98          27.89          19.84
    0.1255              -52.24          15.22          64.22          59.04          3.781         -15.54          116.6          76.35          55.95          27.91          19.86
    0.1464              -52.24          15.22          64.21          59.03          3.776         -15.53          116.6          76.33          55.91          27.93          19.87
    0.1673              -52.24          15.22           64.2          59.03          3.772         -15.52          116.5          76.31          55.88          27.96          19.89
    0.1882              -52.24          15.22          64.19          59.03          3.767         -15.51          116.5          76.29          55.84          27.98          19.91
    0.2091              -52.24          15.21          64.18          59.03          3.761         -15.51          116.5          76.27           55.8          28.01          19.94
    0.2301              -52.25          15.21          64.17          59.03          3.756          -15.5          116.4          76.25          55.76          28.04          19.96
     0.251              -52.25          15.21          64.15          59.02           3.75         -15.49          116.4          76.22          55.71          28.07          19.99
    0.2719              -52.25          15.21          64.14          59.02          3.743         -15.48          116.3           76.2          55.66           28.1          20.01
    0.2928              -52.25           15.2          64.12          59.02          3.736         -15.47          116.3          76.17          55.61          28.14          20.04
    0.3137              -52.25           15.2          64.11          59.02          3.728         -15.46          116.2          76.13          55.55          28.18          20.08
    0.3346              -52.25           15.2          64.09          59.01          3.719         -15.45          116.2           76.1          55.48          28.22          20.11
    0.3555              -52.26          15.19          64.07          59.01           3.71         -15.43          116.1          76.06          55.41          28.27          20.15
    0.3765              -52.26          15.19          64.05          59.01            3.7         -15.42          116.0          76.02          55.33          28.32          20.19
    0.3974              -52.26          15.18          64.03           59.0          3.689          -15.4          115.9          75.98          55.25          28.38          20.24
    0.4183              -52.26          15.18           64.0           59.0          3.676         -15.38          115.8          75.93          55.16          28.44          20.29
    0.4392              -52.26          15.17          63.97          58.99          3.663         -15.36          115.7          75.87          55.06          28.51          20.34
    0.4601              -52.27          15.17          63.94          58.99          3.648         -15.34          115.6          75.81          54.94          28.58           20.4
     0.481              -52.27          15.16          63.91          58.98          3.632         -15.32          115.5          75.75          54.82          28.67          20.47
     0.502              -52.28          15.16          63.87          58.98          3.613         -15.29          115.4          75.67          54.68          28.76          20.55
    0.5229              -52.28          15.15          63.83          58.97          3.593         -15.26          115.2          75.59          54.53          28.86          20.63
    0.5438              -52.28          15.14          63.78          58.96           3.57         -15.23          115.1           75.5          54.35          28.98          20.72
    0.5647              -52.29          15.13          63.73          58.95          3.544         -15.19          114.9          75.39          54.16          29.11          20.83
    0.5856               -52.3          15.12          63.67          58.94          3.515         -15.15          114.7          75.27          53.94          29.26          20.95
    0.6065               -52.3           15.1           63.6          58.93          3.482          -15.1          114.4          75.14          53.69          29.42          21.09
    0.6274              -52.31          15.09          63.52          58.91          3.445         -15.05          114.2          74.99          53.41          29.61          21.24
    0.6484              -52.32          15.07          63.43           58.9          3.401         -14.98          113.8          74.81          53.08          29.83          21.42
    0.6693              -52.33          15.05          63.33          58.88          3.352         -14.91          113.5          74.61           52.7          30.08          21.63
    0.6902              -52.34          15.03          63.21          58.86          3.294         -14.83          113.1          74.38          52.27          30.38          21.86
    0.7111              -52.36           15.0          63.07          58.84          3.226         -14.73          112.6           74.1          51.75          30.72          22.14
     0.732              -52.37          14.97           62.9          58.81          3.146         -14.61          112.0          73.78          51.15          31.13          22.47
    0.7529              -52.39          14.94          62.71          58.77          3.051         -14.48          111.3          73.39          50.43          31.61          22.86
    0.7738              -52.42          14.89          62.47          58.73          2.937         -14.31          110.5          72.93          49.57          32.18          23.33
